<svg width="20" height="20" viewBox="0 0 20 20" fill="none" xmlns="http://www.w3.org/2000/svg">
<rect width="20" height="20" fill="white" fill-opacity="0.01"/>
<path fill-rule="evenodd" clip-rule="evenodd" d="M17.25 4H2.75L2.75 13.5H17.25V4ZM2.75 2.5C1.92157 2.5 1.25 3.17157 1.25 4V13.5C1.25 14.3284 1.92157 15 2.75 15H17.25C18.0784 15 18.75 14.3284 18.75 13.5V4C18.75 3.17157 18.0784 2.5 17.25 2.5H2.75ZM5 16.875C5 16.5298 5.27982 16.25 5.625 16.25H14.375C14.7202 16.25 15 16.5298 15 16.875C15 17.2202 14.7202 17.5 14.375 17.5H5.625C5.27982 17.5 5 17.2202 5 16.875ZM9.28033 6.96967C8.98744 6.67678 8.51256 6.67678 8.21967 6.96967L5.71967 9.46967C5.42678 9.76256 5.42678 10.2374 5.71967 10.5303C6.01256 10.8232 6.48744 10.8232 6.78033 10.5303L8.75 8.56066L10.7197 10.5303C11.0126 10.8232 11.4874 10.8232 11.7803 10.5303L14.2803 8.03033C14.5732 7.73744 14.5732 7.26256 14.2803 6.96967C13.9874 6.67678 13.5126 6.67678 13.2197 6.96967L11.25 8.93934L9.28033 6.96967Z" fill="white" fill-opacity="0.7"/>
</svg>
