<?xml version="1.0" encoding="utf-8"?>
<svg version="1.1" xmlns:xlink="http://www.w3.org/1999/xlink" width="450px" height="20px" xmlns="http://www.w3.org/2000/svg">
  <g transform="matrix(1 0 0 1 0 -115 )">
    <path d="M 450 18.1454187192118  L 446.275862068965 18.1454187192118  L 441.931034482759 11  L 8.68965517241384 11  L 4.34482758620686 19.032118226601  L 0 19.032118226601  L 0 8.39172413793099  L 6.82758620689651 0.411428571428587  L 47.1724137931035 0.411428571428587  L 57.7241379310345 7.50502463054188  L 146.48275862069 7.50502463054188  L 152.068965517241 4  L 299.172413793103 4  L 303.51724137931 7.50502463054188  L 398.48275862069 7.50502463054188  L 409.655172413793 0.411428571428587  L 443.172413793103 0.411428571428587  L 450 9.27842364532012  L 450 18.1454187192118  Z M 430.758620689655 3.95822660098523  L 428.275862068965 3.95822660098523  L 430.758620689655 7.50502463054188  L 433.241379310345 7.50502463054188  L 430.758620689655 3.95822660098523  Z M 435.724137931034 3.95822660098523  L 433.241379310345 3.95822660098523  L 435.724137931034 7.50502463054188  L 438.206896551724 7.50502463054188  L 435.724137931034 3.95822660098523  Z M 443.172413793103 7.50502463054188  L 440.689655172414 3.95822660098523  L 438.206896551724 3.95822660098523  L 440.689655172414 7.50502463054188  L 443.172413793103 7.50502463054188  Z M 11.7931034482759 3.95822660098523  L 9.31034482758616 3.95822660098523  L 6.82758620689651 7.50502463054188  L 9.31034482758616 7.50502463054188  L 11.7931034482759 3.95822660098523  Z M 16.7586206896552 3.95822660098523  L 14.2758620689655 3.95822660098523  L 11.7931034482759 7.50502463054188  L 14.2758620689655 7.50502463054188  L 16.7586206896552 3.95822660098523  Z M 21.7241379310345 3.95822660098523  L 19.2413793103448 3.95822660098523  L 16.7586206896552 7.50502463054188  L 19.2413793103448 7.50502463054188  L 21.7241379310345 3.95822660098523  Z " fill-rule="nonzero" fill="#03b4f5" stroke="none" transform="matrix(1 0 0 1 0 115 )" />
  </g>
</svg>