<svg width="120" height="30" viewBox="0 0 120 30" fill="none" xmlns="http://www.w3.org/2000/svg">
<rect width="120" height="30" rx="15" fill="black" fill-opacity="0.3"/>
<path d="M48.84 8.744V10.242H61.174V8.744H48.84ZM54.23 9.388V15.016C54.23 17.256 53.586 19.02 48.532 19.79C48.896 20.168 49.372 20.896 49.554 21.274C54.832 20.224 55.994 17.872 55.994 15.044V9.388H54.23ZM51.64 14.582H58.612V15.506H51.64V14.582ZM51.64 12.426H58.612V13.322H51.64V12.426ZM50.058 11.068V16.85H60.292V11.068H50.058ZM51.724 16.794L50.254 17.382C52.396 20.56 56.092 21.022 61.034 21.12C61.118 20.56 61.44 19.846 61.734 19.454C56.96 19.496 53.684 19.3 51.724 16.794ZM62.322 15.212L62.7 16.836C63.946 16.486 65.514 16.038 66.97 15.604L66.746 14.078C65.136 14.526 63.456 14.974 62.322 15.212ZM62.518 10.774V12.314H66.732V10.774H62.518ZM63.96 8.128V19.3C63.96 19.482 63.89 19.538 63.736 19.538C63.568 19.538 63.092 19.538 62.616 19.524C62.826 19.986 63.022 20.714 63.078 21.148C63.96 21.162 64.576 21.092 65.01 20.812C65.444 20.546 65.57 20.098 65.57 19.314V8.128H63.96ZM69.168 9.304V10.704H73.242V9.304H69.168ZM69.35 8.142C68.86 9.276 67.964 10.634 66.634 11.656C66.97 11.908 67.474 12.496 67.698 12.86C69.252 11.558 70.288 10.004 71.016 8.45L69.35 8.142ZM72.738 9.304V9.626C72.416 10.326 71.66 11.474 70.988 12.202C71.338 12.384 71.856 12.72 72.164 12.972C72.948 12.174 73.914 10.942 74.488 9.976L73.368 9.234L73.116 9.304H72.738ZM66.718 15.814V17.242H75.51V15.814H66.718ZM67.586 11.698V16.192H69.182V12.972H73.004V16.192H74.684V11.698H67.586ZM71.786 16.794L70.47 17.186C71.352 19.02 72.836 20.476 74.754 21.19C74.978 20.784 75.44 20.182 75.776 19.874C73.984 19.342 72.514 18.194 71.786 16.794ZM70.344 12.65V14.526C70.344 16.094 70.078 18.432 65.948 20.112C66.326 20.406 66.844 20.952 67.082 21.288C71.352 19.314 71.982 16.542 71.982 14.554V12.65H70.344ZM78.436 13.882V21.274H80.144V15.086H86.29V13.882H78.436ZM85.87 13.882V19.552C85.87 19.748 85.786 19.818 85.548 19.832C85.324 19.832 84.428 19.832 83.742 19.79C83.952 20.196 84.19 20.812 84.26 21.26C85.408 21.26 86.234 21.246 86.808 21.022C87.396 20.784 87.592 20.392 87.592 19.58V13.882H85.87ZM79.752 15.828V16.976H86.346V15.828H79.752ZM77.05 9.164V10.466H81.32V9.164H77.05ZM76.728 11.824L76.952 13.21C78.212 13 79.794 12.72 81.334 12.426L81.278 11.208C79.584 11.46 77.89 11.698 76.728 11.824ZM79.752 17.76V18.908H86.374V17.76H79.752ZM80.27 8.1V13.56H81.95V8.1H80.27ZM87.83 8.632C86.92 9.038 85.478 9.5 84.19 9.808C84.358 10.13 84.554 10.648 84.638 10.97C86.01 10.704 87.648 10.298 88.922 9.836L87.83 8.632ZM83.42 8.1V11.544C83.42 13 83.826 13.462 85.506 13.462C85.842 13.462 87.116 13.462 87.48 13.462C88.726 13.462 89.174 13.028 89.356 11.544C88.908 11.446 88.222 11.222 87.886 10.984C87.83 11.88 87.732 12.048 87.312 12.048C87.004 12.048 85.982 12.048 85.758 12.048C85.226 12.048 85.128 11.992 85.128 11.544V8.1H83.42ZM93.906 11.138H99.982V11.74H93.906V11.138ZM93.906 9.57H99.982V10.158H93.906V9.57ZM92.296 8.534V12.776H101.676V8.534H92.296ZM90.742 13.336V14.638H103.146V13.336H90.742ZM94.228 16.262H99.758V17.172H94.228V16.262ZM92.618 15.114V18.32H101.452V15.114H92.618ZM96.104 12.538V14.078H97.826V12.538H96.104ZM96.174 17.662V19.762C96.174 19.916 96.118 19.958 95.922 19.972C95.726 19.972 94.984 19.972 94.396 19.944C94.592 20.308 94.788 20.84 94.872 21.246C95.852 21.246 96.594 21.246 97.14 21.064C97.7 20.868 97.868 20.546 97.868 19.818V17.662H96.174ZM98.484 19.244C99.674 19.734 101.228 20.532 101.984 21.064L103.174 20.084C102.334 19.524 100.738 18.782 99.59 18.362L98.484 19.244ZM93.766 18.348C92.982 18.964 91.638 19.552 90.406 19.916C90.77 20.182 91.344 20.77 91.638 21.092C92.842 20.602 94.354 19.79 95.292 18.964L93.766 18.348Z" fill="white"/>
<circle cx="28" cy="16" r="3" stroke="white" stroke-width="2"/>
<path d="M34 21H38" stroke="white" stroke-width="2" stroke-linecap="round"/>
<path d="M36 19V23" stroke="white" stroke-width="2" stroke-linecap="round"/>
<path fill-rule="evenodd" clip-rule="evenodd" d="M26.0704 7C25.0673 7 24.1306 7.5013 23.5742 8.3359L22.7617 9.5547C22.5762 9.8329 22.264 10 21.9296 10H21C19.3431 10 18 11.3431 18 13V20C18 21.6569 19.3431 23 21 23H32.5C32.9158 23 33.2724 22.7462 33.4232 22.3851C32.8811 22.159 32.5 21.624 32.5 21H21C20.4477 21 20 20.5523 20 20V13C20 12.4477 20.4477 12 21 12H21.9296C22.9327 12 23.8694 11.4987 24.4258 10.6641L25.2383 9.4453C25.4238 9.1671 25.736 9 26.0704 9H29.9296C30.264 9 30.5762 9.1671 30.7617 9.4453L31.5742 10.6641C32.1306 11.4987 33.0673 12 34.0704 12H35C35.5523 12 36 12.4477 36 13V17.5C36.624 17.5 37.159 17.8811 37.3851 18.4232C37.7462 18.2724 38 17.9158 38 17.5V13C38 11.3431 36.6569 10 35 10H34.0704C33.736 10 33.4238 9.8329 33.2383 9.5547L32.4258 8.3359C31.8694 7.5013 30.9327 7 29.9296 7H26.0704Z" fill="white"/>
</svg>
